<?xml version="1.0" standalone="no"?><!DOCTYPE svg PUBLIC "-//W3C//DTD SVG 1.1//EN" "http://www.w3.org/Graphics/SVG/1.1/DTD/svg11.dtd"><svg t="1622281891668" class="icon" viewBox="0 0 1024 1024" version="1.1" xmlns="http://www.w3.org/2000/svg" p-id="11631" xmlns:xlink="http://www.w3.org/1999/xlink" width="48" height="48"><defs><style type="text/css"></style></defs><path d="M250.457821 257.442254c7.211268-13.340845 19.290141-25.6 35.695774-35.876057 26.050704-16.315493 60.84507-26.321127 97.983099-27.943662 3.695775-0.180282 7.48169-0.270423 11.177465-0.270422 34.884507 0 67.876056 7.571831 92.84507 21.273239 20.912676 11.538028 35.24507 26.68169 41.645071 43.808451-14.061972-0.540845-27.492958 0.540845-39.752113 3.064789-14.602817-17.487324-49.397183-32.180282-94.828169-32.180282-3.15493 0-6.4 0.090141-9.55493 0.180282-34.343662 1.532394-62.828169 10.997183-81.667605 23.256338l-53.543662 4.687324zM468.688807 619.808451h61.205634c-8.202817-4.957746-16.315493-10.63662-24.157747-17.03662-7.48169-6.039437-14.422535-12.439437-20.732394-19.019718-4.23662 13.701408-9.735211 25.960563-16.315493 36.056338zM363.314159 599.707042c-6.670423 5.949296-13.791549 11.628169-21.543662 16.946479-1.532394 1.08169-3.064789 2.073239-4.597183 3.15493h36.687324c-3.876056-5.949296-7.391549-12.709859-10.546479-20.101409z" fill="#426020" p-id="11632"></path><path d="M680.159229 589.791549c-3.425352-3.785915-8.292958-6.039437-13.430986-6.039436h-7.571831c2.884507 16.856338 0.270423 31.909859-8.833802 43.087324-1.532394 1.892958-3.24507 3.695775-5.047888 5.228169l-22.715493 204.89014H240.001483l-24.247888-191.278873c-8.292958-3.515493-15.143662-8.743662-19.921126-15.774648-8.653521-12.439437-9.825352-28.664789-4.867606-46.152112-4.777465 0.270423-9.284507 2.433803-12.439437 6.039436-3.425352 3.876056-5.047887 9.014085-4.32676 14.152113l32.090141 253.295775c1.171831 9.014085 8.833803 15.774648 17.847887 15.774648h414.557747c9.194366 0 16.946479-6.940845 17.938028-16.045071l28.123943-253.295775c0.450704-4.957746-1.171831-10.095775-4.597183-13.88169zM264.339511 442.140845c-8.833803 1.802817-17.938028 3.064789-27.132394 3.876056-6.850704 0.540845-13.791549 0.901408-20.642254 0.901409-32.901408 0-64-6.940845-87.616901-19.560564-26.68169-14.332394-42.546479-35.24507-44.529578-58.861971-2.16338-25.960563 12.259155-51.019718 40.743662-70.4 25.419718-17.397183 59.76338-28.664789 96.811268-31.819719 6.850704-0.540845 13.791549-0.901408 20.642253-0.901408 5.408451 0 10.816901 0.180282 16.045071 0.540845-8.112676 5.769014-13.611268 13.070423-15.594366 21.723944-1.08169 4.507042-1.08169 9.104225-0.180282 13.701408h-0.270423c-5.769014 0-11.71831 0.270423-17.577464 0.721127-64.360563 5.498592-106.816901 37.678873-104.653522 63.278873 2.16338 25.059155 45.250704 45.430986 96.180282 45.430986 5.769014 0 11.71831-0.270423 17.577465-0.721127 16.225352-1.352113 32-4.687324 46.332394-9.554929l-16.135211 41.64507z" fill="#426020" p-id="11633"></path><path d="M363.133877 386.253521c-13.521127 0-27.402817-1.622535-41.284507-4.867606-28.484507-6.580282-53.994366-19.380282-71.932394-35.785915-20.642254-19.019718-29.295775-41.014085-24.428169-62.016901 7.121127-30.467606 41.825352-50.208451 88.428169-50.208451 13.521127 0 27.402817 1.622535 41.284507 4.867606 28.484507 6.580282 53.994366 19.380282 71.932394 35.785915 20.642254 19.019718 29.295775 41.014085 24.428169 62.016901-7.121127 30.557746-41.825352 50.208451-88.428169 50.208451z m-49.307042-116.822535c-27.853521 0-50.298592 9.374648-53.27324 22.264789-1.802817 7.752113 3.24507 17.667606 13.701409 27.312676 13.250704 12.169014 33.532394 22.084507 55.707042 27.222535 11.177465 2.614085 22.35493 3.966197 33.08169 3.966197 27.853521 0 50.298592-9.374648 53.27324-22.264789 1.802817-7.752113-3.24507-17.667606-13.701409-27.312676-13.160563-12.169014-33.442254-22.084507-55.616901-27.312676-11.267606-2.523944-22.35493-3.876056-33.171831-3.876056z" fill="#426020" p-id="11634"></path><path d="M532.688807 387.425352c-2.704225 0-5.498592-0.090141-8.202817-0.180282-29.205634-1.261972-56.698592-9.014085-77.340845-21.904225-23.797183-14.873239-36.416901-34.884507-35.515493-56.428169 0.901408-20.642254 14.061972-38.940845 37.228169-51.650704 19.921127-10.997183 46.061972-17.03662 73.64507-17.03662 2.704225 0 5.498592 0.090141 8.202817 0.180282 29.205634 1.261972 56.698592 9.014085 77.340845 21.904225 23.797183 14.873239 36.416901 34.884507 35.515493 56.428169-0.901408 20.642254-14.061972 38.940845-37.228169 51.650704-19.921127 10.997183-46.061972 17.03662-73.64507 17.03662z m-10.185916-111.143662c-43.267606 0-74.185915 18.028169-74.816901 34.16338-0.721127 17.667606 32.630986 38.850704 78.332394 40.833803 2.253521 0.090141 4.416901 0.180282 6.670423 0.180282 43.267606 0 74.185915-18.028169 74.816901-34.16338 0.721127-17.667606-32.630986-38.850704-78.332394-40.833803-2.16338-0.090141-4.416901-0.180282-6.670423-0.180282zM327.347962 797.926761h-82.478874M327.347962 811.447887H226.750779c-7.48169 0-13.521127-6.039437-13.521127-13.521126s6.039437-13.521127 13.521127-13.521127h100.597183c7.48169 0 13.521127 6.039437 13.521126 13.521127s-6.039437 13.521127-13.521126 13.521126zM392.790215 797.926761h-19.2M392.790215 811.447887h-19.109859c-7.48169 0-13.521127-6.039437-13.521127-13.521126s6.039437-13.521127 13.521127-13.521127h19.109859c7.48169 0 13.521127 6.039437 13.521127 13.521127s-6.129577 13.521127-13.521127 13.521126z" fill="#426020" p-id="11635"></path><path d="M666.007117 547.695775c-8.292958-1.352113-16.766197-3.15493-25.329578-5.588733-9.464789-2.614085-18.478873-5.859155-26.952113-9.464788 27.583099 33.442254 35.064789 67.425352 22.535212 82.929577-7.391549 9.104225-20.28169 10.997183-29.83662 10.997183-26.771831 0-60.214085-14.152113-89.419718-37.769014-10.456338-8.473239-19.380282-17.307042-26.952113-26.230986-2.614085 14.602817-6.760563 28.033803-11.988732 39.842254 5.138028 4.957746 10.546479 9.825352 16.315493 14.422535 35.966197 29.115493 76.890141 45.791549 112.135211 45.791549 24.969014 0 44.980282-8.473239 57.870422-24.428169 16.405634-20.28169 18.478873-49.126761 5.769014-81.12676-1.261972-3.15493-2.614085-6.309859-4.146478-9.374648z" fill="#426020" p-id="11636"></path><path d="M356.824018 581.228169c-7.391549 7.121127-15.864789 14.061972-25.329577 20.642254-28.664789 19.830986-60.033803 31.278873-86.174648 31.278873-9.55493 0-26.68169-1.712676-34.794367-13.430986-13.521127-19.470423 3.24507-63.008451 47.95493-98.523944-13.070423 7.842254-27.943662 14.692958-44.169014 20.011268-9.284507 3.064789-18.478873 5.408451-27.492958 7.121127-2.073239 3.515493-3.966197 7.030986-5.678873 10.546478-14.96338 31.008451-15.053521 59.943662-0.270423 81.397184 12.890141 18.659155 35.785915 28.935211 64.450705 28.935211 33.261972 0 72.112676-13.701408 106.636619-37.678873 6.850704-4.777465 13.430986-9.825352 19.650705-15.143662-5.949296-10.095775-10.997183-21.904225-14.783099-35.15493z" fill="#426020" p-id="11637"></path><path d="M281.195849 480c-14.96338 16.856338-39.842254 33.442254-72.383099 44.078873-19.470423 6.4-39.48169 9.735211-57.870422 9.735212-32.901408 0-57.690141-10.726761-63.098592-27.222536-3.785915-11.71831 1.983099-27.132394 15.864789-42.366197 15.233803-16.585915 38.760563-31.369014 65.261972-41.014084-17.487324-4.416901-32.540845-11.177465-43.898592-19.830986-18.929577 10.185915-35.335211 22.625352-47.954929 36.416901-23.346479 25.509859-31.639437 53.183099-23.616902 77.971831 5.588732 17.03662 18.478873 30.91831 37.498592 40.022535 16.405634 7.932394 37.138028 12.078873 59.853521 12.078874 22.174648 0 46.061972-3.966197 69.047887-11.538029 35.335211-11.538028 66.16338-30.377465 86.895775-53.092957 6.850704-7.48169 12.439437-15.233803 16.676056-22.985916-16.225352 3.425352-31.098592 2.794366-42.276056-2.253521z" fill="#426020" p-id="11638"></path><path d="M594.795849 415.819718c3.425352-0.721127 7.030986-1.352113 10.726761-1.802817-1.08169-0.090141-2.16338-0.270423-3.245071-0.360563-3.15493-0.360563-6.309859-0.901408-9.374648-1.442253 0.721127 1.171831 1.352113 2.343662 1.892958 3.605633zM773.725426 435.109859c-16.04507-16.135211-37.498592-29.926761-62.016901-40.022535-16.135211 10.546479-38.580282 17.487324-64.180282 19.650704 9.014085 1.261972 18.11831 3.15493 27.312676 5.769014 29.476056 8.292958 56.157746 22.895775 73.284507 40.112676 14.512676 14.602817 20.912676 29.83662 17.577465 41.645071-5.047887 17.938028-32.540845 29.926761-68.416901 29.92676-16.766197 0-34.16338-2.523944-51.740845-7.48169-29.476056-8.292958-56.157746-22.895775-73.284507-40.112676-1.622535-1.622535-3.15493-3.24507-4.507043-4.867606-13.070423 1.983099-28.664789 0.270423-45.070422-5.047887 4.687324 12.078873 12.8 23.977465 24.067606 35.335211 21.633803 21.814085 53.273239 39.391549 89.059155 49.397184 20.732394 5.859155 41.464789 8.743662 61.476056 8.743661 53.904225 0 93.385915-21.543662 103.121127-56.247887 7.121127-25.059155-2.433803-52.371831-26.681691-76.8z" fill="#426020" p-id="11639"></path><path d="M484.553595 456.473239c-27.853521-17.938028-47.414085-41.64507-54.535211-63.278873-2.16338 6.760563-5.408451 13.791549-9.735211 20.822535h0.991549c25.6 0 54.174648 44.980282 54.174648 109.611268s-28.574648 109.611268-54.174648 109.611268-54.174648-44.980282-54.174648-109.611268c0-25.870423 4.597183-48.585915 11.71831-66.523944-14.332394 10.185915-29.295775 17.577465-43.628169 22.174648-2.704225 14.152113-4.146479 29.115493-4.146479 44.349296 0 37.138028 8.383099 72.383099 23.526761 99.15493 16.946479 30.016901 40.653521 46.512676 66.704225 46.512676s49.757746-16.495775 66.704226-46.512676c15.143662-26.771831 23.526761-61.926761 23.52676-99.15493 0-19.470423-2.343662-38.4-6.670422-55.887324-6.760563-3.24507-13.611268-7.030986-20.281691-11.267606z" fill="#426020" p-id="11640"></path><path d="M441.28599 344.428169c-2.343662-3.335211-5.138028-6.309859-8.292958-9.014084-3.876056 10.907042-13.521127 19.470423-26.861972 25.059154 2.253521 1.171831 4.326761 2.704225 5.769014 4.777465 10.276056 14.422535-6.129577 50.298592-43.447887 76.890141-21.183099 15.143662-45.250704 24.157746-64.270422 24.157747-6.219718 0-17.487324-1.08169-22.625353-8.202817-4.597183-6.490141-3.785915-17.577465 2.253522-30.557747 7.571831-16.225352 22.625352-33.171831 41.104225-46.422535 7.571831-5.408451 15.594366-10.005634 23.52676-13.791549-7.391549-0.721127-14.96338-1.892958-22.625352-3.695775-9.374648-2.16338-18.298592-5.047887-26.501408-8.473239-21.633803 16.405634-38.580282 36.507042-48.225352 57.059155-11.898592 25.419718-11.538028 49.126761 0.991549 66.704225 10.726761 15.053521 29.205634 23.346479 51.921127 23.346479 26.68169 0 57.690141-11.267606 85.183098-30.828169 23.797183-16.946479 42.63662-38.490141 52.912676-60.484507 12.078873-25.239437 11.71831-48.946479-0.811267-66.523944zM718.108525 288.180282c-24.698592-18.388732-58.501408-31.098592-95.369014-35.695775-10.095775-1.261972-20.28169-1.892958-30.197183-1.892958-20.642254 0-40.383099 2.884507-57.870423 8.112676 32.721127 2.253521 60.75493 13.430986 76.8 28.75493 2.253521 0.180282 4.507042 0.450704 6.760564 0.721127 64.090141 8.112676 105.104225 42.095775 101.949296 67.515493-1.802817 13.971831-16.04507 23.43662-24.42817 27.853521-16.946479 8.923944-40.202817 13.791549-65.442253 13.791549-8.473239 0-17.03662-0.540845-25.690141-1.622535-9.464789-1.171831-18.749296-3.064789-27.673239-5.498592 12.349296 13.521127 20.642254 27.943662 23.887324 41.284507 9.825352 1.261972 19.830986 1.802817 29.476056 1.802817 30.91831 0 60.123944-6.4 82.208451-17.938028 25.149296-13.250704 40.56338-32.811268 43.447887-55.256338 3.15493-25.690141-10.276056-51.290141-37.859155-71.932394z" fill="#426020" p-id="11641"></path><path d="M575.325426 363.71831c-14.783099 4.23662-31.909859 6.309859-50.118309 5.588732-2.523944-0.090141-5.047887-0.270423-7.481691-0.450704 5.769014 2.794366 11.538028 5.949296 17.216902 9.64507 19.109859 12.349296 34.884507 28.574648 43.267606 44.439437 6.670423 12.619718 7.932394 23.707042 3.695774 30.377465-3.785915 5.859155-12.980282 9.284507-25.059155 9.284507-18.839437 0-41.55493-7.752113-62.467605-21.183099-19.109859-12.349296-34.884507-28.574648-43.267606-44.439436-6.670423-12.619718-7.932394-23.707042-3.695775-30.377465 3.605634-5.498592 11.808451-8.833803 22.805634-9.284507-15.95493-6.940845-28.214085-16.495775-34.884507-27.312676-7.48169 4.23662-13.611268 9.915493-18.208451 16.946479-11.71831 18.11831-10.997183 41.825352 1.983099 66.704225 11.267606 21.543662 31.008451 42.185915 55.616901 58.050704 26.952113 17.397183 56.067606 26.952113 82.028169 26.952113 24.969014 0 44.619718-9.194366 55.346479-25.780282 11.71831-18.11831 10.997183-41.825352-1.983098-66.704225-7.842254-15.053521-19.921127-29.656338-34.794367-42.456338z" fill="#426020" p-id="11642"></path></svg>