<?xml version="1.0" standalone="no"?><!DOCTYPE svg PUBLIC "-//W3C//DTD SVG 1.1//EN" "http://www.w3.org/Graphics/SVG/1.1/DTD/svg11.dtd"><svg t="1622808653671" class="icon" viewBox="0 0 1024 1024" version="1.1" xmlns="http://www.w3.org/2000/svg" p-id="3831" xmlns:xlink="http://www.w3.org/1999/xlink" width="48" height="48"><defs><style type="text/css"></style></defs><path d="M878.312727 942.545455H119.854545a51.432727 51.432727 0 0 1-51.432727-51.432728V384.698182c0-28.392727 23.04-51.432727 51.432727-51.432727H400.290909c12.8 0 23.272727 10.472727 23.272727 23.272727s-10.472727 23.272727-23.272727 23.272727H119.854545c-2.56 0-4.887273 2.094545-4.887272 4.887273V891.345455c0 2.56 2.094545 4.887273 4.887272 4.887272h758.458182c2.56 0 4.887273-2.094545 4.887273-4.887272V384.698182c0-2.56-2.094545-4.887273-4.887273-4.887273h-283.927272c-12.8 0-23.272727-10.472727-23.272728-23.272727s10.472727-23.272727 23.272728-23.272727h283.927272c28.392727 0 51.432727 23.04 51.432728 51.432727V891.345455c0 28.16-23.04 51.2-51.432728 51.2zM360.029091 260.421818c-6.050909 0-11.869091-2.327273-16.523636-6.749091a23.179636 23.179636 0 0 1 0-32.814545l138.938181-138.938182a23.179636 23.179636 0 1 1 32.814546 32.814545l-138.938182 138.938182c-4.421818 4.421818-10.24 6.749091-16.290909 6.749091z" fill="#040000" p-id="3832"></path><path d="M638.138182 260.421818c-6.050909 0-11.869091-2.327273-16.523637-6.749091l-138.938181-138.938182a23.179636 23.179636 0 1 1 32.814545-32.814545l138.938182 138.938182a23.179636 23.179636 0 0 1-16.290909 39.563636z" fill="#040000" p-id="3833"></path><path d="M499.2 604.392727c-12.8 0-23.272727-10.472727-23.272727-23.272727V103.796364c0-12.8 10.472727-23.272727 23.272727-23.272728s23.272727 10.472727 23.272727 23.272728v477.556363c0 12.8-10.472727 23.04-23.272727 23.04z" fill="#040000" p-id="3834"></path></svg>